<?xml version="1.0" standalone="no"?>
<!DOCTYPE svg PUBLIC "-//W3C//DTD SVG 20010904//EN"
 "http://www.w3.org/TR/2001/REC-SVG-20010904/DTD/svg10.dtd">
<svg version="1.0" xmlns="http://www.w3.org/2000/svg"
 width="300.000000pt" height="102.000000pt" viewBox="0 0 300.000000 102.000000"
 preserveAspectRatio="xMidYMid meet">
<metadata>
Created by potrace 1.10, written by Peter Selinger 2001-2011
</metadata>
<g transform="translate(0.000000,102.000000) scale(0.100000,-0.100000)"
fill="#000000" stroke="none">
<path d="M870 968 c-159 -96 -140 -331 32 -402 51 -21 143 -20 193 3 172 78
179 322 12 406 -78 38 -165 36 -237 -7z m196 -112 c27 -27 34 -42 34 -72 0
-54 -19 -86 -63 -107 -47 -24 -88 -15 -122 25 -43 51 -31 137 23 171 45 28 89
22 128 -17z"/>
<path d="M1287 993 c-4 -3 -7 -102 -7 -220 l0 -213 60 0 60 0 0 110 c0 61 3
110 8 110 4 0 45 -50 92 -110 l85 -110 53 0 52 0 -2 218 -3 217 -55 0 -55 0
-5 -109 -5 -109 -60 79 c-108 141 -111 144 -164 144 -26 0 -51 -3 -54 -7z"/>
<path d="M1767 994 c-4 -4 -7 -103 -7 -221 l0 -213 180 0 180 0 0 50 0 49
-117 3 -118 3 0 30 0 30 103 3 102 3 0 49 0 50 -106 0 -105 0 3 28 3 27 113 3
113 3 -3 52 -3 52 -166 3 c-91 1 -168 -1 -172 -4z"/>
<path d="M175 465 c-51 -18 -120 -91 -134 -141 -23 -82 -2 -174 52 -232 74
-80 217 -92 304 -26 57 43 58 57 7 93 l-45 32 -30 -26 c-52 -43 -125 -32 -154
25 -28 54 -11 136 34 160 32 16 86 12 114 -10 14 -11 28 -20 32 -20 14 0 85
55 85 66 0 20 -67 72 -107 83 -51 15 -110 13 -158 -4z"/>
<path d="M1289 466 c-92 -33 -149 -115 -149 -215 1 -180 191 -286 347 -195 36
21 63 50 63 67 0 3 -18 19 -41 35 l-41 30 -35 -24 c-91 -61 -191 13 -162 121
19 69 106 99 162 55 33 -26 35 -26 82 15 l40 35 -37 33 c-61 54 -151 71 -229
43z"/>
<path d="M2190 468 c-53 -19 -126 -95 -140 -148 -57 -214 161 -371 364 -262
l51 27 3 103 3 102 -106 0 -105 0 0 -44 0 -45 43 -3 c35 -2 43 -7 45 -25 7
-47 -88 -55 -142 -12 -54 42 -51 140 5 182 33 24 95 25 139 2 l32 -17 32 38
c17 21 31 43 31 48 0 6 -20 21 -44 35 -51 28 -155 37 -211 19z"/>
<path d="M2661 467 c-18 -7 -51 -28 -73 -46 -121 -102 -97 -298 45 -374 64
-33 167 -30 231 7 153 90 149 318 -7 398 -50 25 -149 33 -196 15z m140 -117
c67 -36 61 -167 -8 -199 -78 -36 -152 14 -153 102 0 40 5 53 29 78 23 23 38
29 71 29 23 0 50 -5 61 -10z"/>
<path d="M490 250 l0 -221 63 3 62 3 3 78 3 77 74 0 75 0 0 -80 0 -80 60 0 60
0 0 220 0 220 -60 0 -59 0 -3 -77 -3 -78 -72 -3 -72 -3 -3 78 -3 78 -62 3 -63
3 0 -221z"/>
<path d="M960 250 l0 -220 60 0 60 0 0 220 0 220 -60 0 -60 0 0 -220z"/>
<path d="M1653 255 c-50 -118 -88 -217 -85 -220 3 -3 32 -5 64 -5 l58 0 16 40
16 40 83 0 82 0 16 -40 15 -40 61 0 c42 0 61 4 61 13 0 6 -39 105 -87 219
l-88 208 -61 0 -61 0 -90 -215z m176 8 l21 -53 -45 0 -45 0 20 53 c11 28 20
54 20 56 0 11 10 -9 29 -56z"/>
</g>
</svg>
